<svg viewBox="0 0 489 489" version="1.1" xmlns="http://www.w3.org/2000/svg" xmlns:xlink="http://www.w3.org/1999/xlink" xml:space="preserve" xmlns:serif="http://www.serif.com/" style="fill-rule:evenodd;clip-rule:evenodd;stroke-linejoin:round;stroke-miterlimit:2;">
    <g>

            <rect x="0" y="0" width="489" height="489" rx="60" ry="60" fill="#ffffff"/>

    <g transform="translate(310 230) scale(1.3) translate(-244.5 -182)">
            <path d="M322.672,71.18C297.527,20.855 244.84,42.188 209.984,56.301C197.246,61.469 185.176,66.355 177.566,66.852C171.078,63.965 164.781,60.93 158.703,57.996C122.621,40.605 85.258,22.59 60.961,71.18C43.688,105.738 60.039,183.246 91.125,217.168C91.445,302.48 104.469,345.73 129.855,345.73C150.078,345.73 155.344,320.371 160.895,293.527C167.719,260.598 173.922,237.297 191.816,237.297C209.711,237.297 215.914,260.598 222.738,293.523C228.305,320.371 233.555,345.73 253.777,345.73C279.254,345.73 292.277,302.215 292.508,216.391C320.914,172.73 340.945,107.742 322.672,71.18ZM278.316,209.762C277.449,211.062 277.016,212.496 277.016,214.059C277.016,290.332 265.32,330.238 253.781,330.238C246.156,330.238 241.586,308.137 237.91,290.387C231.59,259.828 223.707,221.805 191.816,221.805C159.926,221.805 152.047,259.828 145.723,290.387C142.047,308.137 137.477,330.238 129.852,330.238C118.312,330.238 106.617,290.332 106.617,214.059C106.617,213.031 106.422,212.043 106.027,211.094C105.633,210.148 105.074,209.309 104.348,208.582C75.062,179.289 61.535,104.68 74.82,78.105C91.551,44.668 111.641,52.508 151.969,71.949C177.188,84.105 205.75,97.879 238.289,97.879C238.797,97.879 239.301,97.828 239.801,97.73C240.297,97.629 240.781,97.484 241.254,97.289C241.723,97.094 242.168,96.855 242.594,96.574C243.016,96.289 243.406,95.969 243.766,95.609C244.125,95.25 244.445,94.859 244.73,94.438C245.012,94.012 245.25,93.566 245.445,93.098C245.641,92.629 245.785,92.145 245.887,91.645C245.984,91.145 246.035,90.641 246.035,90.133C246.035,89.625 245.984,89.121 245.887,88.621C245.785,88.125 245.641,87.641 245.445,87.168C245.25,86.699 245.012,86.254 244.73,85.828C244.445,85.406 244.125,85.016 243.766,84.656C243.406,84.297 243.016,83.977 242.594,83.691C242.168,83.41 241.723,83.172 241.254,82.977C240.781,82.781 240.297,82.637 239.801,82.535C239.301,82.438 238.797,82.387 238.289,82.387C225.789,82.223 213.605,80.168 201.742,76.223C206.188,74.551 210.895,72.645 215.793,70.664C257.863,53.613 291.434,43.336 308.812,78.105C322.582,105.641 309.176,163.473 278.316,209.762Z" fill="#000000"/>
</g>
    </g>
</svg>


